HIERARCHY
ROOT hip
{
	OFFSET 0 0 0 
	CHANNELS 6 Xposition Yposition Zposition Zrotation Xrotation Yrotation
	JOINT abdomen
	{
		OFFSET 0 3.398670 -0.004769 
		CHANNELS 3 Zrotation Xrotation Yrotation
		JOINT chest
		{
			OFFSET 0 6.050560 -0.002982 
			CHANNELS 3 Zrotation Xrotation Yrotation
			JOINT neck
			{
				OFFSET 0 10.375700 0.008024 
				CHANNELS 3 Zrotation Xrotation Yrotation
				JOINT head
				{
					OFFSET 0 4.618650 0.003677 
					CHANNELS 3 Zrotation Xrotation Yrotation
					End Site
					{
						OFFSET 0 9.600460 -0.000013 
					}
				}
			}
			JOINT lCollar
			{
				OFFSET 4.800000 9.925670 0.008032 
				CHANNELS 3 Zrotation Xrotation Yrotation
				JOINT lShldr
				{
					OFFSET 5.365090 0 0 
					CHANNELS 3 Zrotation Xrotation Yrotation
					JOINT lForeArm
					{
						OFFSET 12.605600 0.147456 0.154816 
						CHANNELS 3 Zrotation Xrotation Yrotation
						JOINT lHand
						{
							OFFSET 10.667000 -0.080733 2.165230 
							CHANNELS 3 Zrotation Xrotation Yrotation
							End Site
							{
								OFFSET 4.272820 -0.032341 0.867312 
							}
						}
					}
				}
			}
			JOINT rCollar
			{
				OFFSET -4.800000 9.925670 0.008022 
				CHANNELS 3 Zrotation Xrotation Yrotation
				JOINT rShldr
				{
					OFFSET -5.365090 0 0 
					CHANNELS 3 Zrotation Xrotation Yrotation
					JOINT rForeArm
					{
						OFFSET -12.605600 0.147455 0.154817 
						CHANNELS 3 Zrotation Xrotation Yrotation
						JOINT rHand
						{
							OFFSET -10.667000 -0.080733 2.165260 
							CHANNELS 3 Zrotation Xrotation Yrotation
							End Site
							{
								OFFSET -4.272810 -0.032341 0.867326 
							}
						}
					}
				}
			}
		}
	}
	JOINT lThigh
	{
		OFFSET 6.065530 0 0 
		CHANNELS 3 Zrotation Xrotation Yrotation
		JOINT lShin
		{
			OFFSET -0.664052 -12.256800 1.011970 
			CHANNELS 3 Zrotation Xrotation Yrotation
			JOINT lFoot
			{
				OFFSET -0.663843 -12.252900 -1.058370 
				CHANNELS 3 Zrotation Xrotation Yrotation
				JOINT lToe
				{
					OFFSET 0 -2.832770 3.645650 
					CHANNELS 3 Zrotation Xrotation Yrotation
					End Site
					{
						OFFSET 0 0 1.108470 
					}
				}
			}
		}
	}
	JOINT rThigh
	{
		OFFSET -6.065530 0 0 
		CHANNELS 3 Zrotation Xrotation Yrotation
		JOINT rShin
		{
			OFFSET 0.664056 -12.256800 1.011940 
			CHANNELS 3 Zrotation Xrotation Yrotation
			JOINT rFoot
			{
				OFFSET 0.663839 -12.252900 -1.058340 
				CHANNELS 3 Zrotation Xrotation Yrotation
				JOINT rToe
				{
					OFFSET 0 -2.832770 3.645650 
					CHANNELS 3 Zrotation Xrotation Yrotation
					End Site
					{
						OFFSET 0 0 1.108470 
					}
				}
			}
		}
	}
}
MOTION
Frames: 6
Frame Time: 0.033333
-0.000010 35.405800 -7.364410 0 0 0.000079 -0.000005 -7.846540 -0.000001 -0.000001 13.669600 0.000002 -0.000021 0.000006 0.000006 0.000026 -5.823070 -0.000001 0.000006 -0 0 -89.699799 -4.729910 -6.999540 -5.052290 4.828100 -87.032898 72.619003 82.443298 -30.163601 0.000006 -0 0 89.699799 -4.729910 6.999540 5.052280 4.828110 87.032799 -72.619499 82.443199 30.163900 3.980950 -38.807999 2.497260 8.053860 73.762100 -10.720600 -3.101100 -35.177502 0.000025 0.000003 0 0 -5.556210 -56.030701 -4.612560 -1.565270 48.318001 3.488490 3.101170 7.743150 -0 0.000003 0 -0.000003 
-0.000010 35.405800 -7.364410 0 0 0.000079 -0.000005 -7.846540 -0.000001 -0.000001 13.669600 0.000002 -0.000021 0.000006 0.000006 0.000026 -5.823070 -0.000001 0.000006 -0 0 -89.699799 -4.729910 -6.999540 -5.052290 4.828100 -87.032898 72.619003 82.443298 -30.163601 0.000006 -0 0 89.699799 -4.729910 6.999540 5.052280 4.828110 87.032799 -72.619499 82.443199 30.163900 4.098340 -40.802700 2.680620 11.559900 77.658401 -14.336400 -3.101100 -37.173199 0.000027 0.000003 0 0 -5.135810 -52.818001 -4.095890 -1.165380 43.348999 2.931570 3.101160 9.500560 0.000002 0.000003 0.000001 -0.000003 
-0.000010 35.405800 -7.364410 0 0 0.000079 -0.000005 -7.846540 -0.000001 -0.000001 13.669600 0.000002 -0.000021 0.000006 0.000006 0.000026 -5.823070 -0.000001 0.000006 -0 0 -89.699799 -4.729910 -6.999540 -5.052290 4.828100 -87.032898 72.619003 82.443298 -30.163601 0.000006 -0 0 89.699799 -4.729910 6.999540 5.052280 4.828110 87.032799 -72.619499 82.443199 30.163900 4.236440 -42.917702 2.887530 17.775000 81.268097 -20.654800 -3.101090 -38.837502 0.000030 0.000003 0.000001 0 -4.759830 -49.310200 -3.612760 -0.839151 38.067402 2.431920 3.101160 11.274800 -0.000001 0.000003 -0 -0.000003 
-0.000010 35.405800 -7.364410 0 0 0.000079 -0.000005 -7.846540 -0.000001 -0.000001 13.669600 0.000002 -0.000021 0.000006 0.000006 0.000026 -5.823070 -0.000001 0.000006 -0 0 -89.699799 -4.729910 -6.999540 -5.052290 4.828100 -87.032898 72.619003 82.443298 -30.163601 0.000006 -0 0 89.699799 -4.729910 6.999540 5.052280 4.828110 87.032799 -72.619499 82.443199 30.163900 4.404940 -45.221199 3.129730 29.480301 84.234299 -32.449799 -3.101080 -39.831001 0.000038 0.000003 0 0 -4.441120 -45.681499 -3.180670 -0.589681 32.816002 2.002170 3.101160 12.897400 0.000001 0.000003 0.000001 -0.000003 
-0.000010 35.405800 -7.364410 0 0 0.000079 -0.000005 -7.846540 -0.000001 -0.000001 13.669600 0.000002 -0.000021 0.000006 0.000006 0.000026 -5.823070 -0.000001 0.000006 -0 0 -89.699799 -4.729910 -6.999540 -5.052290 4.828100 -87.032898 72.619003 82.443298 -30.163601 0.000006 -0 0 89.699799 -4.729910 6.999540 5.052280 4.828110 87.032799 -72.619499 82.443199 30.163900 4.610270 -47.696098 3.412930 54.954800 86.344803 -58.003601 -3.101080 -40.275700 0.000038 0.000003 0 -0 -4.171780 -41.955502 -2.791880 -0.397740 27.569099 1.620930 3.101150 14.418200 0.000003 0.000003 -0 -0.000003 
-0.000010 35.405800 -7.364410 0 0 0.000079 -0.000005 -7.846540 -0.000001 -0.000001 13.669600 0.000002 -0.000021 0.000006 0.000006 0.000026 -5.823070 -0.000001 0.000006 -0 0 -89.699799 -4.729910 -6.999540 -5.052290 4.828100 -87.032898 72.619003 82.443298 -30.163601 0.000006 -0 0 89.699799 -4.729910 6.999540 5.052280 4.828110 87.032799 -72.619499 82.443199 30.163900 4.854180 -50.258999 3.736150 102.373001 86.782204 -105.497002 -3.101090 -40.499199 0.000036 0.000003 0 0 -3.942690 -38.112598 -2.435930 -0.248662 22.202499 1.267070 3.101150 15.941700 0.000002 0.000003 -0.000001 -0.000003 
